<?xml version="1.0" standalone="no"?>
<!DOCTYPE svg PUBLIC "-//W3C//DTD SVG 20010904//EN"
 "http://www.w3.org/TR/2001/REC-SVG-20010904/DTD/svg10.dtd">
<svg version="1.0" xmlns="http://www.w3.org/2000/svg"
 width="1280.000000pt" height="469.000000pt" viewBox="0 0 1280.000000 469.000000"
 preserveAspectRatio="xMidYMid meet">
<metadata>
Created by potrace 1.15, written by Peter Selinger 2001-2017
</metadata>
<g transform="translate(0.000000,469.000000) scale(0.100000,-0.100000)"
fill="#000000" stroke="none">
<path d="M8020 4463 c-30 -32 -124 -132 -210 -223 -155 -164 -374 -397 -645
-685 -77 -82 -181 -192 -231 -245 -49 -52 -171 -180 -269 -285 -98 -104 -213
-226 -255 -270 -70 -74 -160 -170 -334 -355 -90 -96 -218 -231 -321 -340 -44
-47 -155 -164 -246 -260 -90 -96 -270 -287 -399 -424 -308 -327 -310 -329
-310 -342 0 -7 7 -15 16 -18 22 -8 1005 -6 1026 2 10 4 69 61 130 128 266 283
769 817 857 909 53 55 202 213 331 350 129 138 306 327 395 420 89 94 275 292
415 440 139 149 322 342 405 430 202 214 628 666 696 739 29 32 54 63 54 70 0
8 -141 12 -526 14 l-526 2 -53 -57z"/>
<path d="M9184 4506 c-7 -19 361 -770 379 -774 19 -4 530 755 523 775 -8 20
-894 19 -902 -1z"/>
<path d="M10152 4233 l3 -238 50 0 50 0 3 238 2 237 -55 0 -55 0 2 -237z"/>
<path d="M10292 4233 l3 -238 197 0 c183 0 198 1 224 21 61 45 69 65 72 197 4
139 -5 181 -48 222 l-31 30 -210 3 -209 3 2 -238z m377 113 c8 -9 11 -51 9
-122 l-3 -109 -137 -3 -138 -3 0 126 0 125 129 0 c98 0 131 -3 140 -14z"/>
<path d="M10893 4450 c-61 -37 -68 -58 -68 -216 0 -156 5 -170 69 -218 25 -19
41 -21 189 -21 l162 0 0 55 0 55 -155 5 -155 5 -3 33 -3 32 150 0 151 0 0 55
0 55 -150 0 c-141 0 -150 1 -150 19 0 50 3 51 161 51 l149 0 0 55 0 55 -157 0
c-139 0 -162 -2 -190 -20z"/>
<path d="M11518 4238 c-125 -128 -228 -236 -228 -240 0 -5 30 -8 68 -8 l67 0
95 95 95 95 87 0 88 0 0 -95 0 -95 50 0 50 0 0 209 0 209 -29 31 c-24 25 -37
31 -73 31 l-43 1 -227 -233z m270 74 c3 -19 -1 -22 -34 -22 l-37 0 23 25 c27
29 44 28 48 -3z"/>
<path d="M11978 4432 c-37 -35 -42 -45 -45 -93 -3 -42 0 -61 16 -86 38 -61 59
-67 229 -73 128 -4 157 -8 165 -21 6 -9 7 -24 4 -33 -6 -14 -31 -16 -212 -16
l-205 0 0 -61 0 -61 214 4 c235 3 240 5 290 71 28 38 27 112 -2 159 -36 59
-69 68 -236 68 -127 0 -146 2 -155 17 -6 11 -6 24 0 35 9 16 29 18 214 18
l205 0 0 55 0 55 -220 0 -221 0 -41 -38z"/>
<path d="M7100 4370 c-227 -5 -237 -7 -277 -43 l-23 -20 0 31 0 32 -139 0
c-145 0 -181 -7 -218 -42 l-23 -21 0 31 c0 32 -1 32 -50 32 l-50 0 0 -164 c0
-127 -3 -166 -14 -175 -9 -8 -57 -11 -147 -9 l-134 3 -5 65 -5 65 -36 3 c-36
3 -36 3 -42 58 -7 64 -25 97 -70 124 -28 17 -51 20 -175 20 -158 0 -193 -8
-232 -57 l-25 -29 -28 33 c-16 18 -43 37 -61 41 -18 5 -107 7 -199 4 l-167 -5
0 -23 c0 -13 -4 -24 -10 -24 -5 0 -10 4 -10 8 0 5 -15 17 -32 26 -28 15 -59
17 -216 14 -100 -2 -182 -6 -182 -10 0 -5 0 -105 0 -223 l0 -215 50 0 50 0 0
84 c0 67 3 85 16 90 9 3 71 6 138 6 115 0 126 2 160 25 l36 24 0 -109 0 -110
50 0 50 0 0 85 0 85 123 0 c82 0 127 -4 135 -12 7 -7 12 -42 12 -85 l0 -73 50
0 c49 0 50 0 50 32 l0 31 23 -20 c41 -38 63 -43 195 -43 161 0 186 5 226 45
l32 32 37 -33 37 -34 162 0 c144 0 167 2 195 20 17 10 37 28 43 40 11 21 11
21 32 -5 38 -48 65 -55 228 -55 l150 0 0 31 c0 29 1 29 17 13 39 -38 76 -45
223 -38 l140 7 0 48 0 48 -147 3 -148 3 -3 104 c-2 67 1 108 9 117 9 11 54 14
225 14 l214 0 0 -170 0 -170 50 0 50 0 0 170 0 169 82 3 81 3 0 38 c-1 20 -2
44 -2 52 -1 16 -28 17 -501 5z m-318 -105 c2 -3 3 -18 0 -35 l-4 -30 -139 0
c-126 0 -139 2 -139 18 0 34 15 41 95 45 165 7 182 7 187 2z m-965 -17 c14
-18 24 -190 12 -211 -9 -15 -28 -17 -148 -17 -117 0 -140 2 -145 16 -12 31 -7
191 7 202 12 10 53 14 213 20 32 1 55 -3 61 -10z m-926 -14 c9 -11 10 -20 2
-32 -8 -14 -31 -17 -137 -20 l-126 -3 0 36 0 35 124 0 c101 0 126 -3 137 -16z
m446 0 c3 -9 2 -24 -4 -33 -8 -13 -33 -17 -132 -19 l-121 -3 0 36 0 35 125 0
c107 0 127 -2 132 -16z m1453 -173 l0 -28 -82 -6 c-171 -14 -208 -6 -208 44 0
18 8 19 145 19 l145 0 0 -29z"/>
<path d="M303 4330 c-84 -51 -95 -156 -22 -226 30 -29 30 -29 187 -34 l157 -5
0 -30 0 -30 -197 -3 -198 -2 0 -56 0 -55 208 3 c196 3 209 4 239 26 73 52 77
160 8 221 l-36 31 -144 0 c-117 0 -146 3 -159 16 -44 44 -11 53 200 56 l189 3
3 53 3 52 -203 0 c-184 0 -206 -2 -235 -20z"/>
<path d="M772 4298 l3 -53 83 -3 82 -3 0 -174 0 -175 50 0 50 0 0 175 0 175
85 0 85 0 0 55 0 55 -221 0 -220 0 3 -52z"/>
<path d="M1245 4338 c-3 -7 -4 -110 -3 -228 l3 -215 50 0 50 0 3 88 3 87 124
0 c146 0 145 1 145 -109 l0 -71 50 0 50 0 0 88 c0 57 -5 97 -15 115 -12 23
-12 36 -3 71 16 60 4 106 -38 147 l-35 34 -190 3 c-151 3 -190 1 -194 -10z
m363 -122 c7 -36 -24 -46 -145 -46 l-113 0 0 35 0 36 127 -3 c117 -3 128 -5
131 -22z"/>
<path d="M1978 4129 c-120 -123 -218 -227 -218 -231 0 -5 31 -8 69 -8 l69 0
82 90 82 90 84 0 83 0 3 -87 3 -88 50 0 50 0 3 155 c2 85 0 174 -3 198 -9 59
-40 92 -94 99 l-45 6 -218 -224z m252 66 c0 -21 -5 -25 -32 -25 l-31 0 23 25
c13 14 27 25 32 25 4 0 8 -11 8 -25z"/>
<path d="M2370 4295 l0 -55 85 0 85 0 0 -175 0 -175 50 0 50 0 0 175 0 174 83
3 82 3 3 53 3 52 -220 0 -221 0 0 -55z"/>
<path d="M2909 4327 c-56 -37 -69 -75 -69 -207 0 -128 12 -167 63 -204 26 -19
42 -21 185 -21 l157 0 3 53 3 52 -143 0 c-153 0 -168 4 -168 47 0 23 0 23 145
23 l145 0 0 50 0 49 -142 3 c-128 3 -143 5 -146 21 -8 41 13 47 159 47 l139 0
0 55 0 55 -149 0 c-137 0 -151 -2 -182 -23z"/>
<path d="M3352 4330 c-63 -39 -73 -69 -70 -217 3 -147 13 -172 79 -205 44 -23
291 -26 343 -4 69 29 100 107 71 182 -27 70 -57 84 -187 84 l-108 0 0 -50 0
-50 95 0 c80 0 96 -3 104 -18 6 -11 6 -24 0 -35 -9 -15 -27 -17 -142 -17 -90
0 -137 4 -145 12 -16 16 -16 200 0 216 8 8 67 12 200 12 l188 0 0 55 0 55
-197 0 c-180 0 -201 -2 -231 -20z"/>
<path d="M3820 4264 c0 -136 44 -194 149 -194 l50 0 3 -87 3 -88 50 0 50 0 1
85 2 85 61 6 c104 10 141 63 141 199 l0 80 -50 0 -50 0 0 -74 c0 -105 -2 -106
-155 -106 -153 0 -155 1 -155 106 l0 74 -50 0 -50 0 0 -86z"/>
<path d="M230 3375 l0 -355 80 0 80 0 0 135 0 135 203 0 c198 0 204 1 255 26
92 45 137 147 111 250 -16 62 -87 137 -144 153 -24 7 -146 11 -312 11 l-273 0
0 -355z m564 169 c20 -19 20 -44 2 -70 -13 -18 -28 -19 -208 -19 l-193 0 -3
53 -3 52 195 0 c164 0 197 -3 210 -16z"/>
<path d="M1020 3460 c0 -294 3 -315 58 -374 57 -60 83 -66 340 -66 l232 0 0
80 0 80 -218 0 c-199 0 -220 2 -235 18 -14 16 -17 53 -19 273 l-3 254 -77 3
-78 3 0 -271z"/>
<path d="M2389 3715 c-23 -10 -145 -130 -360 -353 l-324 -337 110 -3 110 -3
130 136 130 136 133 -1 132 0 0 -135 0 -135 80 0 80 0 0 268 c0 147 -5 285
-10 306 -23 102 -122 158 -211 121z m56 -225 c0 -35 0 -35 -47 -38 -27 -2 -48
0 -48 4 0 5 15 23 32 41 41 42 63 40 63 -7z"/>
<path d="M2807 3717 c-53 -17 -101 -59 -126 -110 -20 -41 -21 -59 -21 -315 l0
-272 75 0 75 0 0 243 c0 175 4 249 13 267 l13 25 183 3 c127 2 188 -1 197 -9
11 -9 14 -62 14 -270 l0 -259 80 0 80 0 0 268 0 268 -27 55 c-21 40 -40 61
-77 84 l-49 30 -196 2 c-131 2 -208 -2 -234 -10z"/>
<path d="M3605 3721 c-16 -4 -40 -13 -52 -19 -37 -20 -91 -92 -102 -137 -7
-26 -11 -145 -11 -294 l0 -251 80 0 80 0 0 253 c0 233 1 255 18 270 27 25 362
25 386 1 14 -13 16 -52 16 -270 l0 -254 80 0 80 0 0 258 c0 157 -4 273 -11
297 -15 53 -91 129 -144 144 -44 12 -371 13 -420 2z"/>
<path d="M4230 3375 l0 -355 80 0 80 0 0 355 0 355 -80 0 -80 0 0 -355z"/>
<path d="M4587 3716 c-59 -22 -97 -57 -127 -121 -18 -36 -20 -64 -20 -307 l0
-268 80 0 80 0 0 254 c0 218 2 257 16 270 13 13 45 16 194 16 173 0 179 -1
194 -22 14 -19 16 -62 16 -270 l0 -248 75 0 75 0 0 275 c0 255 -2 279 -20 314
-24 48 -83 98 -130 111 -55 15 -387 12 -433 -4z"/>
<path d="M5378 3716 c-56 -20 -85 -42 -116 -88 -27 -41 -27 -43 -30 -232 -4
-212 2 -247 50 -302 64 -72 79 -75 352 -72 240 3 243 3 279 28 21 14 50 43 65
64 24 35 27 48 27 122 0 76 -2 86 -30 126 -17 23 -49 53 -70 65 -37 21 -53 23
-202 23 l-163 0 0 -80 0 -80 144 0 c138 0 146 -1 160 -22 21 -30 20 -44 -4
-68 -19 -19 -33 -20 -218 -20 -180 0 -200 2 -215 18 -14 16 -17 43 -17 173 0
85 5 161 10 169 8 13 57 16 307 20 l298 5 3 83 3 82 -298 0 c-222 -1 -308 -4
-335 -14z"/>
<path d="M8990 3300 l0 -270 60 0 60 0 0 105 0 105 170 0 170 0 0 65 0 65
-170 0 -170 0 0 40 0 40 181 0 180 0 -2 60 -2 60 -239 0 -238 0 0 -270z"/>
<path d="M9510 3300 l0 -270 60 0 60 0 0 270 0 270 -60 0 -60 0 0 -270z"/>
<path d="M9750 3548 c-73 -50 -75 -55 -78 -299 l-3 -219 60 0 61 0 0 194 c0
164 3 197 16 210 12 13 41 16 148 16 89 0 136 -4 144 -12 9 -9 12 -69 12 -210
l0 -198 60 0 60 0 0 213 c0 204 -1 214 -23 250 -44 72 -60 77 -253 77 -161 0
-173 -1 -204 -22z"/>
<path d="M10567 3338 c-125 -128 -241 -250 -258 -270 l-31 -38 85 0 85 0 97
105 97 105 104 0 104 0 0 -105 0 -105 123 3 122 2 3 194 c1 123 6 199 13 208
9 10 46 13 144 13 115 0 134 -2 148 -18 15 -16 17 -46 17 -210 l0 -192 61 0
60 0 -3 213 c-3 237 -9 258 -78 304 -31 22 -43 23 -204 23 -153 0 -174 -2
-204 -20 -38 -23 -72 -74 -73 -110 0 -16 -5 -7 -14 25 -18 69 -60 105 -123
105 l-47 1 -228 -233z m281 54 c3 -19 -1 -22 -33 -22 l-35 0 16 25 c20 31 48
29 52 -3z"/>
<path d="M11623 3549 c-65 -42 -73 -68 -73 -246 0 -150 1 -162 23 -193 48 -72
58 -75 268 -78 l190 -3 -3 63 -3 63 -175 5 -175 5 -3 129 c-2 86 1 133 9 142
9 11 48 14 180 14 l169 0 0 60 0 60 -187 0 c-173 0 -191 -2 -220 -21z"/>
<path d="M12113 3549 c-65 -42 -73 -68 -73 -246 0 -150 1 -162 23 -193 48 -72
58 -75 268 -78 l190 -3 -3 63 -3 63 -175 5 -175 5 -3 38 -3 37 171 0 171 0 -3
63 -3 62 -167 3 -168 2 0 28 c0 49 11 52 187 52 l163 0 0 60 0 60 -182 0
c-168 0 -186 -2 -215 -21z"/>
<path d="M215 2798 c-3 -7 -4 -287 -3 -623 l3 -610 150 0 150 0 0 620 0 620
-148 3 c-112 2 -149 0 -152 -10z"/>
<path d="M871 2795 c-94 -30 -175 -104 -229 -207 l-27 -53 -3 -488 -3 -488
148 3 148 3 5 441 c5 417 6 443 24 463 19 20 27 21 311 21 273 0 294 -1 316
-19 l24 -19 3 -446 3 -447 147 3 147 3 0 475 c0 475 0 475 -23 533 -31 76
-116 168 -190 204 l-57 28 -350 2 c-277 2 -359 -1 -394 -12z"/>
<path d="M2233 2791 c-29 -11 -65 -28 -81 -40 -51 -36 -113 -111 -140 -169
l-27 -57 0 -480 0 -480 147 -3 147 -3 3 447 3 446 24 19 c22 18 43 19 316 19
l294 0 20 -26 c21 -26 21 -37 21 -465 l0 -439 150 0 151 0 -3 483 -3 482 -31
65 c-38 80 -105 149 -182 187 l-57 28 -350 2 c-322 2 -354 1 -402 -16z"/>
<path d="M3599 2786 c-97 -39 -158 -95 -203 -184 -42 -83 -48 -145 -44 -457
l3 -290 32 -67 c42 -89 101 -151 182 -191 l66 -32 383 -3 c425 -3 445 -1 536
59 62 41 131 135 154 208 15 48 17 99 17 356 0 344 -5 372 -78 471 -49 66
-101 106 -176 134 -48 19 -78 20 -434 20 -376 0 -383 -1 -438 -24z m800 -322
c20 -25 21 -39 21 -282 0 -249 -1 -256 -22 -279 l-21 -23 -336 0 c-330 0 -335
0 -358 22 -23 21 -23 23 -23 280 l0 259 26 24 27 25 333 0 333 0 20 -26z"/>
<path d="M4814 2797 c-2 -7 -3 -238 -2 -513 3 -497 3 -499 26 -549 28 -60 71
-107 132 -143 39 -24 56 -27 130 -27 72 0 92 4 128 25 27 15 217 206 500 504
251 264 503 529 560 588 57 60 100 113 97 118 -4 6 -85 10 -208 10 l-202 -1
-418 -439 c-230 -242 -422 -440 -427 -440 -6 0 -11 168 -12 438 l-3 437 -148
3 c-116 2 -149 0 -153 -11z"/>
<path d="M7678 2801 c-72 -23 -70 -22 -878 -871 -112 -118 -233 -245 -268
-282 -35 -37 -61 -72 -57 -78 4 -6 80 -10 208 -9 l202 1 119 127 c66 69 167
174 224 234 l105 107 203 0 204 0 2 -232 3 -233 150 0 150 0 0 505 c0 473 -1
508 -19 554 -23 60 -85 130 -141 158 -44 23 -161 34 -207 19z m60 -409 l3 -42
-51 0 -51 0 38 45 c21 24 43 43 48 41 6 -1 11 -21 13 -44z"/>
<path d="M8136 2794 c-12 -30 -7 -279 6 -292 9 -9 74 -12 230 -12 l218 0 0
-465 0 -466 153 3 152 3 3 462 2 463 223 2 222 3 3 158 3 157 -605 0 c-541 0
-604 -2 -610 -16z"/>
<path d="M9410 2185 l0 -626 153 3 152 3 0 620 0 620 -152 3 -153 3 0 -626z"/>
<path d="M10045 2796 c-122 -38 -218 -135 -257 -258 -16 -52 -18 -96 -18 -353
0 -257 2 -301 18 -353 34 -107 113 -196 218 -244 48 -23 54 -23 464 -23 l415
0 56 26 c107 51 185 144 214 257 24 92 17 645 -8 712 -38 99 -131 191 -232
229 -53 20 -74 21 -443 20 -281 0 -398 -4 -427 -13z m790 -331 l25 -24 0 -257
c0 -251 -1 -258 -22 -281 l-21 -23 -344 0 -344 0 -24 25 -25 24 0 255 0 254
31 26 31 26 334 0 335 0 24 -25z"/>
<path d="M11491 2795 c-105 -33 -210 -138 -248 -248 -16 -47 -18 -95 -18 -517
l0 -465 152 -3 152 -3 3 447 3 446 24 19 c22 18 43 19 320 19 l298 0 21 -23
c22 -23 22 -28 24 -463 l3 -439 153 -3 153 -3 -3 483 -3 483 -27 58 c-35 75
-113 156 -185 193 l-58 29 -360 2 c-285 2 -369 -1 -404 -12z"/>
<path d="M7970 1499 c-14 -6 -36 -20 -48 -32 -49 -45 -52 -62 -52 -287 l0
-210 55 0 55 0 0 189 c0 104 3 196 6 205 4 12 20 16 55 16 l49 0 0 -205 0
-205 55 0 55 0 0 203 c0 112 2 206 5 208 2 3 26 3 52 -1 l48 -5 5 -200 5 -200
55 0 55 0 0 205 c0 229 -7 259 -69 303 -29 20 -43 22 -196 24 -96 1 -175 -2
-190 -8z"/>
<path d="M8945 1494 c-26 -13 -464 -490 -473 -515 -2 -5 30 -9 71 -9 l75 0 94
105 93 105 93 0 92 0 0 -105 0 -105 55 0 55 0 0 225 c0 249 -4 271 -60 300
-36 19 -57 19 -95 -1z m45 -164 c0 -28 -3 -30 -37 -30 l-37 0 29 30 c16 17 32
30 37 30 4 0 8 -13 8 -30z"/>
<path d="M9140 1240 l0 -270 55 0 55 0 0 105 0 105 138 0 c94 0 142 -4 150
-12 8 -8 12 -46 12 -105 l0 -93 55 0 55 0 0 105 c0 77 -4 114 -16 136 -12 24
-13 37 -5 61 30 84 0 178 -69 217 -35 19 -53 21 -234 21 l-196 0 0 -270z m391
129 c18 -18 19 -23 6 -42 -14 -21 -22 -22 -148 -22 l-134 0 -3 28 c-7 56 -3
57 133 57 113 0 127 -2 146 -21z"/>
<path d="M9700 1240 l0 -270 55 0 55 0 0 105 0 105 140 0 c165 0 160 4 160
-124 l0 -86 56 0 56 0 -4 113 c-2 92 -7 118 -23 142 -17 27 -19 44 -16 158 l3
127 -56 0 -56 0 0 -93 c0 -59 -4 -97 -12 -105 -8 -8 -52 -12 -130 -12 l-118 0
0 105 0 105 -55 0 -55 0 0 -270z"/>
<path d="M10360 1499 c-14 -6 -36 -20 -48 -32 -47 -43 -52 -67 -52 -230 0
-143 2 -156 23 -187 48 -71 60 -75 248 -78 l169 -3 0 65 0 66 -153 0 c-165 0
-177 3 -177 52 l0 28 155 0 155 0 0 60 0 60 -156 0 -155 0 3 38 3 37 160 5
160 5 3 63 3 62 -158 -1 c-87 0 -169 -5 -183 -10z"/>
<path d="M10740 1450 l0 -59 91 -3 90 -3 2 -205 2 -205 58 -3 57 -3 0 211 0
210 90 0 90 0 0 60 0 60 -240 0 -240 0 0 -60z"/>
<path d="M11260 1240 l0 -270 55 0 55 0 0 270 0 270 -55 0 -55 0 0 -270z"/>
<path d="M11505 1496 c-37 -17 -70 -52 -84 -89 -7 -17 -11 -112 -11 -233 l0
-204 55 0 55 0 0 193 c0 137 3 196 12 205 8 8 53 12 138 12 85 0 130 -4 138
-12 9 -9 12 -68 12 -205 l0 -193 56 0 55 0 -3 219 c-3 204 -5 222 -24 247 -47
64 -62 69 -222 71 -108 2 -155 -1 -177 -11z"/>
<path d="M12065 1496 c-36 -15 -82 -67 -91 -100 -3 -13 -4 -91 -2 -174 3 -164
8 -179 72 -226 24 -19 44 -21 183 -24 185 -4 229 7 268 67 49 76 40 158 -25
223 l-38 38 -121 0 -121 0 0 -60 0 -60 99 0 c107 0 125 -8 119 -52 -3 -23 -5
-23 -152 -26 -101 -2 -153 1 -162 9 -11 9 -14 41 -14 130 0 158 -14 149 242
149 l198 0 0 60 0 60 -212 0 c-154 -1 -221 -4 -243 -14z"/>
<path d="M180 1456 l0 -45 71 -3 71 -3 -1 -147 -2 -148 45 0 45 0 3 148 3 147
73 3 73 3 -3 42 -3 42 -187 3 -188 2 0 -44z"/>
<path d="M655 1486 c-49 -21 -68 -60 -73 -148 -7 -112 3 -162 39 -198 l31 -30
139 0 139 0 0 45 0 44 -127 3 -128 3 -3 28 -3 27 126 0 126 0 -3 43 -3 42
-122 3 c-114 2 -123 4 -123 22 0 31 32 40 149 40 l111 0 0 45 0 45 -122 0
c-80 -1 -134 -5 -153 -14z"/>
<path d="M1334 1488 c-11 -7 -98 -94 -193 -193 l-172 -180 57 -3 57 -3 76 75
76 76 68 0 67 0 0 -75 0 -75 45 0 45 0 0 164 c0 157 -1 166 -22 190 -27 31
-75 41 -104 24z m36 -118 c0 -15 -7 -20 -27 -20 -25 0 -26 0 -8 20 10 11 22
20 27 20 4 0 8 -9 8 -20z"/>
<path d="M1564 1491 c-11 -5 -33 -23 -47 -41 -27 -31 -27 -33 -27 -186 l0
-154 43 0 42 0 -3 134 c-3 148 3 166 59 166 l29 0 0 -150 0 -150 45 0 45 0 0
150 0 150 24 0 c56 0 56 -1 56 -156 l0 -144 45 0 45 0 0 155 0 155 -34 38 -34
37 -134 2 c-73 1 -142 -1 -154 -6z"/>
<path d="M1950 1350 c0 -232 7 -240 218 -240 l144 0 34 34 34 34 0 161 0 161
-40 0 -40 0 0 -134 c0 -74 -3 -141 -6 -150 -4 -11 -19 -16 -45 -16 l-39 0 0
151 0 150 -42 -3 -43 -3 -3 -148 -3 -148 -37 3 -37 3 -3 148 -3 147 -44 0 -45
0 0 -150z"/>
<path d="M2480 1482 c-53 -26 -70 -70 -70 -180 0 -102 14 -150 51 -176 19 -13
51 -16 170 -16 l147 0 30 29 c35 35 42 66 42 175 0 154 -38 186 -220 186 -89
0 -123 -4 -150 -18z m264 -85 c14 -10 16 -26 14 -102 l-3 -90 -125 0 -125 0
-3 90 c-4 113 -2 115 128 115 62 0 102 -5 114 -13z"/>
<path d="M2878 1494 c-5 -4 -8 -92 -8 -196 l0 -188 45 0 44 0 3 73 3 72 99 3
c64 2 103 -1 112 -9 9 -8 14 -33 14 -75 l0 -64 45 0 45 0 0 70 c0 42 -6 82
-14 99 -9 17 -11 32 -5 42 26 41 1 129 -45 160 -23 15 -324 27 -338 13z m302
-99 c7 -8 10 -22 6 -30 -4 -12 -26 -15 -116 -15 -109 0 -110 0 -110 23 0 13 3
27 7 30 3 4 50 7 103 7 74 0 101 -4 110 -15z"/>
<path d="M3310 1306 l0 -196 43 0 42 0 0 73 0 72 101 3 c125 3 134 -2 134 -89
l0 -59 40 0 40 0 0 78 c0 57 -5 84 -17 102 -13 19 -16 43 -14 117 l3 93 -41 0
-41 0 0 -59 c0 -93 2 -91 -110 -91 l-98 0 0 73 0 72 -41 3 -41 3 0 -195z"/>
<path d="M147 933 c-4 -3 -7 -42 -7 -85 l0 -78 135 0 135 0 0 -275 0 -276 78
3 77 3 3 273 2 272 130 0 130 0 0 85 0 85 -338 0 c-186 0 -342 -3 -345 -7z"/>
<path d="M1045 931 c-16 -4 -39 -13 -51 -19 -36 -19 -92 -89 -103 -129 -14
-50 -14 -357 0 -407 6 -21 29 -58 51 -82 61 -66 99 -74 355 -74 l213 0 0 85 0
85 -218 0 c-246 0 -252 2 -252 73 l0 37 225 0 225 0 0 80 0 80 -225 0 -225 0
0 38 c0 70 7 72 253 72 l217 0 0 85 0 85 -217 -1 c-120 -1 -231 -4 -248 -8z"/>
<path d="M1716 928 c-50 -14 -121 -83 -136 -135 -7 -24 -10 -107 -8 -235 l3
-196 30 -44 c17 -24 51 -54 75 -68 44 -24 51 -25 283 -28 l237 -4 0 86 0 86
-224 0 c-196 0 -225 2 -237 17 -11 12 -14 55 -14 175 0 146 2 161 19 174 16
11 65 14 238 14 l218 0 0 85 0 85 -222 -1 c-123 -1 -241 -6 -262 -11z"/>
<path d="M2252 583 l3 -358 78 -3 77 -3 0 141 0 140 185 0 185 0 0 -140 0
-141 78 3 77 3 3 358 2 357 -80 0 -80 0 0 -140 0 -140 -185 0 -185 0 0 140 0
140 -80 0 -80 0 2 -357z"/>
<path d="M3139 926 c-59 -21 -96 -53 -123 -108 l-26 -52 0 -273 0 -274 78 3
77 3 5 263 c4 219 8 264 20 272 8 5 94 10 191 10 158 0 178 -2 192 -18 15 -16
17 -50 17 -276 l0 -257 78 3 77 3 3 254 c3 303 -3 335 -72 399 -24 22 -61 45
-82 51 -56 16 -390 13 -435 -3z"/>
<path d="M3945 931 c-16 -4 -39 -13 -51 -19 -36 -19 -92 -89 -103 -129 -14
-50 -14 -357 0 -407 6 -21 29 -58 51 -82 63 -68 104 -76 361 -72 209 3 213 3
257 30 25 14 54 39 66 55 42 58 45 81 42 291 l-3 200 -30 44 c-17 24 -51 54
-75 68 -44 24 -51 25 -265 27 -121 1 -233 -2 -250 -6z m449 -177 c13 -13 16
-44 16 -179 0 -152 -1 -165 -19 -175 -12 -6 -100 -10 -217 -10 -170 0 -200 2
-216 17 -16 14 -18 34 -18 174 0 152 1 158 22 173 33 24 409 23 432 0z"/>
<path d="M4624 926 c-3 -8 -4 -133 -2 -278 3 -249 4 -265 25 -305 31 -58 87
-100 148 -113 28 -6 139 -9 255 -8 l205 3 3 83 3 82 -225 0 c-221 0 -225 0
-240 22 -14 19 -16 63 -16 275 l0 253 -75 0 c-56 0 -77 -4 -81 -14z"/>
<path d="M5459 927 c-60 -22 -96 -54 -123 -109 -25 -50 -26 -58 -26 -237 0
-205 8 -237 66 -294 61 -61 67 -62 329 -62 262 0 268 1 329 62 58 57 66 89 66
294 0 185 0 187 -28 240 -20 39 -41 62 -77 84 l-48 30 -226 2 c-168 2 -235 -1
-262 -10z m463 -174 c16 -14 18 -34 18 -174 0 -130 -3 -160 -16 -173 -24 -24
-409 -24 -436 1 -16 14 -18 34 -18 171 0 131 3 158 17 174 15 16 35 18 216 18
172 0 203 -2 219 -17z"/>
<path d="M6298 924 c-59 -18 -121 -85 -137 -149 -15 -58 -14 -334 1 -393 8
-33 25 -60 58 -93 65 -65 102 -72 360 -67 197 3 207 4 250 28 24 14 58 45 75
68 28 40 30 50 30 126 0 74 -3 87 -27 122 -15 21 -44 50 -65 64 -35 24 -44 25
-205 28 l-168 3 0 -80 0 -81 139 0 c153 0 171 -6 171 -59 0 -49 -9 -51 -230
-51 -188 0 -208 2 -223 18 -14 16 -17 43 -17 168 0 114 3 155 14 170 14 18 32
19 313 24 l298 5 0 80 0 80 -295 2 c-233 1 -305 -1 -342 -13z"/>
<path d="M7002 788 c3 -152 3 -153 33 -194 51 -71 86 -88 186 -92 l88 -4 3
-136 3 -137 78 -3 77 -3 0 140 0 139 88 4 c76 3 94 7 130 30 22 15 54 49 69
75 27 46 28 53 28 188 l0 140 -77 3 -78 3 0 -121 c0 -169 14 -160 -239 -160
l-200 0 -20 26 c-18 23 -21 41 -21 140 l0 114 -76 0 -75 0 3 -152z"/>
<path d="M9305 676 c-17 -7 -43 -28 -59 -46 l-27 -33 3 -148 c3 -141 4 -149
28 -175 41 -44 78 -54 204 -54 l114 0 22 -35 c20 -33 25 -35 76 -35 30 0 54 2
54 5 0 2 -9 24 -21 48 l-21 43 26 38 c25 37 26 45 26 171 0 121 -2 135 -23
166 -39 59 -73 69 -232 69 -94 -1 -150 -5 -170 -14z m313 -108 c15 -15 17
-218 2 -218 -5 0 -10 5 -10 10 0 6 -27 10 -60 10 -58 0 -60 -1 -50 -20 10 -19
8 -20 -73 -20 -51 0 -88 5 -95 12 -8 8 -12 48 -12 113 0 65 4 105 12 113 17
17 269 17 286 0z"/>
<path d="M9764 675 c-3 -8 -4 -91 -3 -184 4 -152 6 -172 25 -197 45 -61 65
-69 197 -72 143 -4 184 5 226 53 l31 36 0 189 0 190 -50 0 -50 0 0 -168 c0
-117 -4 -172 -12 -180 -17 -17 -229 -17 -246 0 -8 8 -12 63 -12 180 l0 168
-50 0 c-36 0 -52 -4 -56 -15z"/>
<path d="M10723 678 c-12 -7 -97 -92 -189 -188 -92 -96 -188 -196 -213 -222
l-45 -48 72 0 72 0 87 90 86 90 88 0 89 0 0 -90 0 -90 50 0 50 0 0 200 0 200
-27 30 c-32 35 -86 47 -120 28z m45 -146 c3 -19 -1 -22 -28 -22 -31 0 -32 5
-7 38 14 18 31 10 35 -16z"/>
<path d="M10904 676 c-3 -8 -4 -91 -2 -185 3 -185 7 -197 72 -245 25 -19 41
-21 184 -21 l157 0 3 53 3 52 -143 0 c-99 0 -148 4 -156 12 -8 8 -12 63 -12
180 l0 168 -50 0 c-35 0 -52 -5 -56 -14z"/>
<path d="M11350 455 l0 -235 50 0 50 0 0 235 0 235 -50 0 -50 0 0 -235z"/>
<path d="M11490 635 l0 -55 85 0 85 0 0 -180 0 -180 50 0 50 0 0 180 0 180 85
0 85 0 0 55 0 55 -220 0 -220 0 0 -55z"/>
<path d="M11970 590 l0 -101 39 -41 c35 -38 43 -42 99 -46 l61 -4 3 -87 3 -86
50 0 50 0 3 88 3 87 42 0 c54 0 106 26 134 69 20 29 23 47 23 127 l0 94 -50 0
-50 0 0 -78 c0 -47 -5 -83 -12 -90 -17 -17 -269 -17 -286 0 -7 7 -12 43 -12
90 l0 78 -50 0 -50 0 0 -100z"/>
</g>
</svg>
